<mxfile host="app.diagrams.net" modified="2023-07-24T07:53:11.983Z" agent="Mozilla/5.0 (Windows NT 10.0; Win64; x64) AppleWebKit/537.36 (KHTML, like Gecko) Chrome/115.0.0.0 Safari/537.36" etag="1Ph-TamlZmF4ppx7j6FV" version="21.6.5" type="github" pages="2">
  <diagram name="페이지-1" id="rGcjJryMHV9K7biq0Z4z">
    <mxGraphModel dx="1762" dy="832" grid="1" gridSize="10" guides="1" tooltips="1" connect="1" arrows="1" fold="1" page="1" pageScale="1" pageWidth="827" pageHeight="1169" math="0" shadow="0">
      <root>
        <mxCell id="0" />
        <mxCell id="1" parent="0" />
        <mxCell id="cD-MWLT_m3SdDVy49TuI-28" value="고객" style="whiteSpace=wrap;html=1;align=center;" parent="1" vertex="1">
          <mxGeometry x="260" y="220" width="110" height="40" as="geometry" />
        </mxCell>
        <mxCell id="cD-MWLT_m3SdDVy49TuI-36" value="고객명" style="ellipse;whiteSpace=wrap;html=1;align=center;" parent="1" vertex="1">
          <mxGeometry x="210" y="120" width="100" height="40" as="geometry" />
        </mxCell>
        <mxCell id="cD-MWLT_m3SdDVy49TuI-39" value="전화번호" style="ellipse;whiteSpace=wrap;html=1;align=center;strokeColor=default;fillOpacity=100;" parent="1" vertex="1">
          <mxGeometry x="480" y="170" width="100" height="40" as="geometry" />
        </mxCell>
        <mxCell id="cD-MWLT_m3SdDVy49TuI-40" value="이메일" style="ellipse;whiteSpace=wrap;html=1;align=center;" parent="1" vertex="1">
          <mxGeometry x="440" y="270" width="100" height="40" as="geometry" />
        </mxCell>
        <mxCell id="cD-MWLT_m3SdDVy49TuI-41" value="주소" style="ellipse;whiteSpace=wrap;html=1;align=center;" parent="1" vertex="1">
          <mxGeometry x="364" y="330" width="100" height="40" as="geometry" />
        </mxCell>
        <mxCell id="cD-MWLT_m3SdDVy49TuI-42" value="&lt;font style=&quot;font-size: 12px;&quot;&gt;지역&lt;/font&gt;" style="ellipse;whiteSpace=wrap;html=1;align=center;" parent="1" vertex="1">
          <mxGeometry x="180" y="340" width="100" height="40" as="geometry" />
        </mxCell>
        <mxCell id="cD-MWLT_m3SdDVy49TuI-44" value="" style="endArrow=none;html=1;rounded=0;exitX=0.56;exitY=1.005;exitDx=0;exitDy=0;exitPerimeter=0;entryX=0.5;entryY=0;entryDx=0;entryDy=0;" parent="1" source="cD-MWLT_m3SdDVy49TuI-36" target="cD-MWLT_m3SdDVy49TuI-28" edge="1">
          <mxGeometry relative="1" as="geometry">
            <mxPoint x="400" y="350" as="sourcePoint" />
            <mxPoint x="560" y="350" as="targetPoint" />
          </mxGeometry>
        </mxCell>
        <mxCell id="cD-MWLT_m3SdDVy49TuI-45" value="" style="endArrow=none;html=1;rounded=0;exitX=1;exitY=0.25;exitDx=0;exitDy=0;entryX=0.08;entryY=0.825;entryDx=0;entryDy=0;entryPerimeter=0;" parent="1" edge="1" target="cD-MWLT_m3SdDVy49TuI-39" source="cD-MWLT_m3SdDVy49TuI-28">
          <mxGeometry relative="1" as="geometry">
            <mxPoint x="496.03" y="328.16000000000014" as="sourcePoint" />
            <mxPoint x="629.5999999999999" y="310.00000000000006" as="targetPoint" />
          </mxGeometry>
        </mxCell>
        <mxCell id="cD-MWLT_m3SdDVy49TuI-48" value="" style="endArrow=none;html=1;rounded=0;exitX=0.25;exitY=1;exitDx=0;exitDy=0;entryX=0.378;entryY=-0.018;entryDx=0;entryDy=0;entryPerimeter=0;" parent="1" source="cD-MWLT_m3SdDVy49TuI-28" target="cD-MWLT_m3SdDVy49TuI-42" edge="1">
          <mxGeometry relative="1" as="geometry">
            <mxPoint x="400" y="350" as="sourcePoint" />
            <mxPoint x="560" y="350" as="targetPoint" />
          </mxGeometry>
        </mxCell>
        <mxCell id="cD-MWLT_m3SdDVy49TuI-49" value="가입일" style="ellipse;whiteSpace=wrap;html=1;align=center;" parent="1" vertex="1">
          <mxGeometry x="130" y="160" width="100" height="40" as="geometry" />
        </mxCell>
        <mxCell id="cD-MWLT_m3SdDVy49TuI-50" value="" style="endArrow=none;html=1;rounded=0;exitX=0.5;exitY=1;exitDx=0;exitDy=0;entryX=0;entryY=0.5;entryDx=0;entryDy=0;" parent="1" source="cD-MWLT_m3SdDVy49TuI-49" target="cD-MWLT_m3SdDVy49TuI-28" edge="1">
          <mxGeometry relative="1" as="geometry">
            <mxPoint x="400" y="350" as="sourcePoint" />
            <mxPoint x="560" y="350" as="targetPoint" />
          </mxGeometry>
        </mxCell>
        <mxCell id="cD-MWLT_m3SdDVy49TuI-51" value="" style="endArrow=none;html=1;rounded=0;entryX=0;entryY=0;entryDx=0;entryDy=0;exitX=0.5;exitY=1;exitDx=0;exitDy=0;" parent="1" source="cD-MWLT_m3SdDVy49TuI-28" target="cD-MWLT_m3SdDVy49TuI-41" edge="1">
          <mxGeometry relative="1" as="geometry">
            <mxPoint x="470" y="390" as="sourcePoint" />
            <mxPoint x="560" y="350" as="targetPoint" />
          </mxGeometry>
        </mxCell>
        <mxCell id="cD-MWLT_m3SdDVy49TuI-52" value="" style="endArrow=none;html=1;rounded=0;entryX=0;entryY=0.5;entryDx=0;entryDy=0;exitX=1;exitY=0.5;exitDx=0;exitDy=0;" parent="1" source="cD-MWLT_m3SdDVy49TuI-28" target="cD-MWLT_m3SdDVy49TuI-40" edge="1">
          <mxGeometry relative="1" as="geometry">
            <mxPoint x="560" y="350" as="sourcePoint" />
            <mxPoint x="560" y="350" as="targetPoint" />
          </mxGeometry>
        </mxCell>
        <mxCell id="cD-MWLT_m3SdDVy49TuI-53" value="고객번호" style="ellipse;whiteSpace=wrap;html=1;align=center;" parent="1" vertex="1">
          <mxGeometry x="350" y="120" width="100" height="40" as="geometry" />
        </mxCell>
        <mxCell id="cD-MWLT_m3SdDVy49TuI-55" value="" style="endArrow=none;html=1;rounded=0;entryX=0.605;entryY=1.05;entryDx=0;entryDy=0;entryPerimeter=0;exitX=0.666;exitY=-0.018;exitDx=0;exitDy=0;exitPerimeter=0;" parent="1" source="cD-MWLT_m3SdDVy49TuI-28" target="cD-MWLT_m3SdDVy49TuI-53" edge="1">
          <mxGeometry relative="1" as="geometry">
            <mxPoint x="400" y="350" as="sourcePoint" />
            <mxPoint x="560" y="350" as="targetPoint" />
          </mxGeometry>
        </mxCell>
        <mxCell id="jmS20mdzS4E1CvwKXZpg-2" value="제품" style="ellipse;whiteSpace=wrap;html=1;align=center;" vertex="1" parent="1">
          <mxGeometry x="90" y="260" width="100" height="40" as="geometry" />
        </mxCell>
        <mxCell id="jmS20mdzS4E1CvwKXZpg-3" value="" style="endArrow=none;html=1;rounded=0;exitX=1;exitY=0.5;exitDx=0;exitDy=0;entryX=0;entryY=1;entryDx=0;entryDy=0;" edge="1" parent="1" source="jmS20mdzS4E1CvwKXZpg-2" target="cD-MWLT_m3SdDVy49TuI-28">
          <mxGeometry width="50" height="50" relative="1" as="geometry">
            <mxPoint x="390" y="430" as="sourcePoint" />
            <mxPoint x="440" y="380" as="targetPoint" />
          </mxGeometry>
        </mxCell>
        <mxCell id="jmS20mdzS4E1CvwKXZpg-12" value="" style="edgeStyle=orthogonalEdgeStyle;rounded=0;orthogonalLoop=1;jettySize=auto;html=1;" edge="1" parent="1" source="jmS20mdzS4E1CvwKXZpg-4" target="jmS20mdzS4E1CvwKXZpg-8">
          <mxGeometry relative="1" as="geometry" />
        </mxCell>
        <mxCell id="jmS20mdzS4E1CvwKXZpg-13" value="" style="edgeStyle=orthogonalEdgeStyle;rounded=0;orthogonalLoop=1;jettySize=auto;html=1;" edge="1" parent="1" source="jmS20mdzS4E1CvwKXZpg-4" target="jmS20mdzS4E1CvwKXZpg-6">
          <mxGeometry relative="1" as="geometry" />
        </mxCell>
        <mxCell id="jmS20mdzS4E1CvwKXZpg-14" style="edgeStyle=orthogonalEdgeStyle;rounded=0;orthogonalLoop=1;jettySize=auto;html=1;exitX=0;exitY=1;exitDx=0;exitDy=0;" edge="1" parent="1" source="jmS20mdzS4E1CvwKXZpg-4" target="jmS20mdzS4E1CvwKXZpg-10">
          <mxGeometry relative="1" as="geometry" />
        </mxCell>
        <mxCell id="jmS20mdzS4E1CvwKXZpg-15" value="" style="edgeStyle=orthogonalEdgeStyle;rounded=0;orthogonalLoop=1;jettySize=auto;html=1;" edge="1" parent="1" source="jmS20mdzS4E1CvwKXZpg-4" target="jmS20mdzS4E1CvwKXZpg-7">
          <mxGeometry relative="1" as="geometry" />
        </mxCell>
        <mxCell id="jmS20mdzS4E1CvwKXZpg-16" style="edgeStyle=orthogonalEdgeStyle;rounded=0;orthogonalLoop=1;jettySize=auto;html=1;exitX=1;exitY=1;exitDx=0;exitDy=0;" edge="1" parent="1" source="jmS20mdzS4E1CvwKXZpg-4" target="jmS20mdzS4E1CvwKXZpg-9">
          <mxGeometry relative="1" as="geometry" />
        </mxCell>
        <mxCell id="jmS20mdzS4E1CvwKXZpg-4" value="제품" style="rounded=0;whiteSpace=wrap;html=1;gradientColor=none;fillColor=default;" vertex="1" parent="1">
          <mxGeometry x="350" y="760" width="120" height="55" as="geometry" />
        </mxCell>
        <mxCell id="jmS20mdzS4E1CvwKXZpg-6" value="제품명" style="ellipse;whiteSpace=wrap;html=1;" vertex="1" parent="1">
          <mxGeometry x="350" y="960" width="120" height="60" as="geometry" />
        </mxCell>
        <mxCell id="jmS20mdzS4E1CvwKXZpg-7" value="제품코드" style="ellipse;whiteSpace=wrap;html=1;" vertex="1" parent="1">
          <mxGeometry x="570" y="650" width="120" height="60" as="geometry" />
        </mxCell>
        <mxCell id="jmS20mdzS4E1CvwKXZpg-8" value="제품구분" style="ellipse;whiteSpace=wrap;html=1;" vertex="1" parent="1">
          <mxGeometry x="100" y="680" width="140" height="60" as="geometry" />
        </mxCell>
        <mxCell id="jmS20mdzS4E1CvwKXZpg-9" value="가격" style="ellipse;whiteSpace=wrap;html=1;" vertex="1" parent="1">
          <mxGeometry x="560" y="910" width="120" height="60" as="geometry" />
        </mxCell>
        <mxCell id="jmS20mdzS4E1CvwKXZpg-10" value="제품색상" style="ellipse;whiteSpace=wrap;html=1;" vertex="1" parent="1">
          <mxGeometry x="100" y="930" width="120" height="60" as="geometry" />
        </mxCell>
        <mxCell id="jmS20mdzS4E1CvwKXZpg-17" value="관리" style="rhombus;whiteSpace=wrap;html=1;" vertex="1" parent="1">
          <mxGeometry x="240" y="390" width="120" height="90" as="geometry" />
        </mxCell>
        <mxCell id="jmS20mdzS4E1CvwKXZpg-21" value="" style="endArrow=none;html=1;rounded=0;exitX=0.5;exitY=0;exitDx=0;exitDy=0;entryX=0.4;entryY=0.975;entryDx=0;entryDy=0;entryPerimeter=0;" edge="1" parent="1" source="jmS20mdzS4E1CvwKXZpg-17" target="cD-MWLT_m3SdDVy49TuI-28">
          <mxGeometry width="50" height="50" relative="1" as="geometry">
            <mxPoint x="390" y="330" as="sourcePoint" />
            <mxPoint x="440" y="280" as="targetPoint" />
          </mxGeometry>
        </mxCell>
        <mxCell id="jmS20mdzS4E1CvwKXZpg-22" value="지역" style="rounded=0;whiteSpace=wrap;html=1;" vertex="1" parent="1">
          <mxGeometry x="490" y="420" width="120" height="50" as="geometry" />
        </mxCell>
        <mxCell id="jmS20mdzS4E1CvwKXZpg-23" value="" style="endArrow=none;html=1;rounded=0;exitX=1;exitY=0.5;exitDx=0;exitDy=0;" edge="1" parent="1">
          <mxGeometry width="50" height="50" relative="1" as="geometry">
            <mxPoint x="360" y="436.25" as="sourcePoint" />
            <mxPoint x="490" y="440" as="targetPoint" />
          </mxGeometry>
        </mxCell>
        <mxCell id="jmS20mdzS4E1CvwKXZpg-24" style="edgeStyle=orthogonalEdgeStyle;rounded=0;orthogonalLoop=1;jettySize=auto;html=1;exitX=0;exitY=0.25;exitDx=0;exitDy=0;entryX=0;entryY=0.5;entryDx=0;entryDy=0;" edge="1" parent="1" source="jmS20mdzS4E1CvwKXZpg-22" target="jmS20mdzS4E1CvwKXZpg-22">
          <mxGeometry relative="1" as="geometry" />
        </mxCell>
        <mxCell id="jmS20mdzS4E1CvwKXZpg-25" value="지역코드" style="ellipse;whiteSpace=wrap;html=1;" vertex="1" parent="1">
          <mxGeometry x="640" y="340" width="120" height="60" as="geometry" />
        </mxCell>
        <mxCell id="jmS20mdzS4E1CvwKXZpg-26" value="지역명" style="ellipse;whiteSpace=wrap;html=1;" vertex="1" parent="1">
          <mxGeometry x="640" y="470" width="120" height="60" as="geometry" />
        </mxCell>
        <mxCell id="jmS20mdzS4E1CvwKXZpg-27" value="" style="endArrow=none;html=1;rounded=0;exitX=1;exitY=0;exitDx=0;exitDy=0;" edge="1" parent="1" source="jmS20mdzS4E1CvwKXZpg-22" target="jmS20mdzS4E1CvwKXZpg-25">
          <mxGeometry width="50" height="50" relative="1" as="geometry">
            <mxPoint x="390" y="530" as="sourcePoint" />
            <mxPoint x="440" y="480" as="targetPoint" />
          </mxGeometry>
        </mxCell>
        <mxCell id="jmS20mdzS4E1CvwKXZpg-28" value="" style="endArrow=none;html=1;rounded=0;exitX=1;exitY=1;exitDx=0;exitDy=0;" edge="1" parent="1" source="jmS20mdzS4E1CvwKXZpg-22" target="jmS20mdzS4E1CvwKXZpg-26">
          <mxGeometry width="50" height="50" relative="1" as="geometry">
            <mxPoint x="390" y="530" as="sourcePoint" />
            <mxPoint x="440" y="480" as="targetPoint" />
          </mxGeometry>
        </mxCell>
        <mxCell id="jmS20mdzS4E1CvwKXZpg-29" value="구매" style="rhombus;whiteSpace=wrap;html=1;" vertex="1" parent="1">
          <mxGeometry x="243" y="540" width="114" height="80" as="geometry" />
        </mxCell>
        <mxCell id="jmS20mdzS4E1CvwKXZpg-30" value="" style="endArrow=none;html=1;rounded=0;exitX=0.5;exitY=0;exitDx=0;exitDy=0;entryX=0.5;entryY=1;entryDx=0;entryDy=0;" edge="1" parent="1" source="jmS20mdzS4E1CvwKXZpg-29" target="jmS20mdzS4E1CvwKXZpg-17">
          <mxGeometry width="50" height="50" relative="1" as="geometry">
            <mxPoint x="390" y="530" as="sourcePoint" />
            <mxPoint x="310" y="500" as="targetPoint" />
          </mxGeometry>
        </mxCell>
        <mxCell id="jmS20mdzS4E1CvwKXZpg-31" value="구매수량" style="ellipse;whiteSpace=wrap;html=1;" vertex="1" parent="1">
          <mxGeometry x="60" y="450" width="120" height="60" as="geometry" />
        </mxCell>
        <mxCell id="jmS20mdzS4E1CvwKXZpg-32" value="구매일자" style="ellipse;whiteSpace=wrap;html=1;" vertex="1" parent="1">
          <mxGeometry x="50" y="570" width="120" height="60" as="geometry" />
        </mxCell>
        <mxCell id="jmS20mdzS4E1CvwKXZpg-33" value="" style="endArrow=none;html=1;rounded=0;exitX=1;exitY=0.667;exitDx=0;exitDy=0;exitPerimeter=0;" edge="1" parent="1" source="jmS20mdzS4E1CvwKXZpg-31" target="jmS20mdzS4E1CvwKXZpg-29">
          <mxGeometry width="50" height="50" relative="1" as="geometry">
            <mxPoint x="390" y="530" as="sourcePoint" />
            <mxPoint x="440" y="480" as="targetPoint" />
          </mxGeometry>
        </mxCell>
        <mxCell id="jmS20mdzS4E1CvwKXZpg-34" value="" style="endArrow=none;html=1;rounded=0;exitX=1;exitY=0.5;exitDx=0;exitDy=0;entryX=0;entryY=0.5;entryDx=0;entryDy=0;" edge="1" parent="1" source="jmS20mdzS4E1CvwKXZpg-32" target="jmS20mdzS4E1CvwKXZpg-29">
          <mxGeometry width="50" height="50" relative="1" as="geometry">
            <mxPoint x="390" y="530" as="sourcePoint" />
            <mxPoint x="440" y="480" as="targetPoint" />
          </mxGeometry>
        </mxCell>
        <mxCell id="jmS20mdzS4E1CvwKXZpg-35" value="" style="endArrow=none;html=1;rounded=0;entryX=0.5;entryY=1;entryDx=0;entryDy=0;exitX=0.25;exitY=0;exitDx=0;exitDy=0;" edge="1" parent="1" source="jmS20mdzS4E1CvwKXZpg-4" target="jmS20mdzS4E1CvwKXZpg-29">
          <mxGeometry width="50" height="50" relative="1" as="geometry">
            <mxPoint x="390" y="730" as="sourcePoint" />
            <mxPoint x="440" y="680" as="targetPoint" />
          </mxGeometry>
        </mxCell>
      </root>
    </mxGraphModel>
  </diagram>
  <diagram id="M3LgbdcX0rlyFmzAHf0I" name="페이지-2">
    <mxGraphModel dx="3341" dy="929" grid="1" gridSize="10" guides="1" tooltips="1" connect="1" arrows="1" fold="1" page="1" pageScale="1" pageWidth="1654" pageHeight="2336" math="0" shadow="0">
      <root>
        <mxCell id="0" />
        <mxCell id="1" parent="0" />
        <mxCell id="uyTorKmZNLtFc4iw9UgR-1" value="&lt;span style=&quot;color: rgb(0, 0, 0); font-family: Arial; font-size: 19px; font-style: normal; font-variant-ligatures: normal; font-variant-caps: normal; font-weight: 700; letter-spacing: normal; orphans: 2; text-align: center; text-indent: 0px; text-transform: none; widows: 2; word-spacing: 0px; -webkit-text-stroke-width: 0px; background-color: rgb(255, 255, 255); text-decoration-thickness: initial; text-decoration-style: initial; text-decoration-color: initial; float: none; display: inline !important;&quot;&gt;logical data modeling(RM)&lt;/span&gt;" style="text;whiteSpace=wrap;html=1;" vertex="1" parent="1">
          <mxGeometry x="250" y="90" width="490" height="40" as="geometry" />
        </mxCell>
        <mxCell id="BC6CCDMrd8fZHv1Ki_fr-1" value="고객" style="whiteSpace=wrap;html=1;align=center;" vertex="1" parent="1">
          <mxGeometry x="180" y="470" width="110" height="40" as="geometry" />
        </mxCell>
        <mxCell id="BC6CCDMrd8fZHv1Ki_fr-2" value="고객명" style="ellipse;whiteSpace=wrap;html=1;align=center;" vertex="1" parent="1">
          <mxGeometry x="130" y="370" width="100" height="40" as="geometry" />
        </mxCell>
        <mxCell id="BC6CCDMrd8fZHv1Ki_fr-3" value="전화번호" style="ellipse;whiteSpace=wrap;html=1;align=center;strokeColor=default;fillOpacity=100;" vertex="1" parent="1">
          <mxGeometry x="400" y="420" width="100" height="40" as="geometry" />
        </mxCell>
        <mxCell id="BC6CCDMrd8fZHv1Ki_fr-4" value="이메일" style="ellipse;whiteSpace=wrap;html=1;align=center;" vertex="1" parent="1">
          <mxGeometry x="360" y="520" width="100" height="40" as="geometry" />
        </mxCell>
        <mxCell id="BC6CCDMrd8fZHv1Ki_fr-5" value="주소" style="ellipse;whiteSpace=wrap;html=1;align=center;" vertex="1" parent="1">
          <mxGeometry x="284" y="580" width="100" height="40" as="geometry" />
        </mxCell>
        <mxCell id="BC6CCDMrd8fZHv1Ki_fr-6" value="&lt;font style=&quot;font-size: 12px;&quot;&gt;지역&lt;/font&gt;" style="ellipse;whiteSpace=wrap;html=1;align=center;" vertex="1" parent="1">
          <mxGeometry x="90" y="580" width="100" height="40" as="geometry" />
        </mxCell>
        <mxCell id="BC6CCDMrd8fZHv1Ki_fr-7" value="" style="endArrow=none;html=1;rounded=0;exitX=0.56;exitY=1.005;exitDx=0;exitDy=0;exitPerimeter=0;entryX=0.5;entryY=0;entryDx=0;entryDy=0;" edge="1" parent="1" source="BC6CCDMrd8fZHv1Ki_fr-2" target="BC6CCDMrd8fZHv1Ki_fr-1">
          <mxGeometry relative="1" as="geometry">
            <mxPoint x="320" y="600" as="sourcePoint" />
            <mxPoint x="480" y="600" as="targetPoint" />
          </mxGeometry>
        </mxCell>
        <mxCell id="BC6CCDMrd8fZHv1Ki_fr-8" value="" style="endArrow=none;html=1;rounded=0;exitX=1;exitY=0.25;exitDx=0;exitDy=0;entryX=0.08;entryY=0.825;entryDx=0;entryDy=0;entryPerimeter=0;" edge="1" parent="1" source="BC6CCDMrd8fZHv1Ki_fr-1" target="BC6CCDMrd8fZHv1Ki_fr-3">
          <mxGeometry relative="1" as="geometry">
            <mxPoint x="416.03" y="578.1600000000001" as="sourcePoint" />
            <mxPoint x="549.5999999999999" y="560" as="targetPoint" />
          </mxGeometry>
        </mxCell>
        <mxCell id="BC6CCDMrd8fZHv1Ki_fr-9" value="" style="endArrow=none;html=1;rounded=0;exitX=0.25;exitY=1;exitDx=0;exitDy=0;entryX=0.378;entryY=-0.018;entryDx=0;entryDy=0;entryPerimeter=0;" edge="1" parent="1" source="BC6CCDMrd8fZHv1Ki_fr-1" target="BC6CCDMrd8fZHv1Ki_fr-6">
          <mxGeometry relative="1" as="geometry">
            <mxPoint x="320" y="600" as="sourcePoint" />
            <mxPoint x="480" y="600" as="targetPoint" />
          </mxGeometry>
        </mxCell>
        <mxCell id="BC6CCDMrd8fZHv1Ki_fr-10" value="가입일" style="ellipse;whiteSpace=wrap;html=1;align=center;" vertex="1" parent="1">
          <mxGeometry x="50" y="410" width="100" height="40" as="geometry" />
        </mxCell>
        <mxCell id="BC6CCDMrd8fZHv1Ki_fr-11" value="" style="endArrow=none;html=1;rounded=0;exitX=0.5;exitY=1;exitDx=0;exitDy=0;entryX=0;entryY=0.5;entryDx=0;entryDy=0;" edge="1" parent="1" source="BC6CCDMrd8fZHv1Ki_fr-10" target="BC6CCDMrd8fZHv1Ki_fr-1">
          <mxGeometry relative="1" as="geometry">
            <mxPoint x="320" y="600" as="sourcePoint" />
            <mxPoint x="480" y="600" as="targetPoint" />
          </mxGeometry>
        </mxCell>
        <mxCell id="BC6CCDMrd8fZHv1Ki_fr-12" value="" style="endArrow=none;html=1;rounded=0;entryX=0;entryY=0;entryDx=0;entryDy=0;exitX=0.5;exitY=1;exitDx=0;exitDy=0;" edge="1" parent="1" source="BC6CCDMrd8fZHv1Ki_fr-1" target="BC6CCDMrd8fZHv1Ki_fr-5">
          <mxGeometry relative="1" as="geometry">
            <mxPoint x="390" y="640" as="sourcePoint" />
            <mxPoint x="480" y="600" as="targetPoint" />
          </mxGeometry>
        </mxCell>
        <mxCell id="BC6CCDMrd8fZHv1Ki_fr-13" value="" style="endArrow=none;html=1;rounded=0;entryX=0;entryY=0.5;entryDx=0;entryDy=0;exitX=1;exitY=0.5;exitDx=0;exitDy=0;" edge="1" parent="1" source="BC6CCDMrd8fZHv1Ki_fr-1" target="BC6CCDMrd8fZHv1Ki_fr-4">
          <mxGeometry relative="1" as="geometry">
            <mxPoint x="480" y="600" as="sourcePoint" />
            <mxPoint x="480" y="600" as="targetPoint" />
          </mxGeometry>
        </mxCell>
        <mxCell id="BC6CCDMrd8fZHv1Ki_fr-14" value="고객번호" style="ellipse;whiteSpace=wrap;html=1;align=center;" vertex="1" parent="1">
          <mxGeometry x="270" y="370" width="100" height="40" as="geometry" />
        </mxCell>
        <mxCell id="BC6CCDMrd8fZHv1Ki_fr-15" value="" style="endArrow=none;html=1;rounded=0;entryX=0.605;entryY=1.05;entryDx=0;entryDy=0;entryPerimeter=0;exitX=0.666;exitY=-0.018;exitDx=0;exitDy=0;exitPerimeter=0;" edge="1" parent="1" source="BC6CCDMrd8fZHv1Ki_fr-1" target="BC6CCDMrd8fZHv1Ki_fr-14">
          <mxGeometry relative="1" as="geometry">
            <mxPoint x="320" y="600" as="sourcePoint" />
            <mxPoint x="480" y="600" as="targetPoint" />
          </mxGeometry>
        </mxCell>
        <mxCell id="BC6CCDMrd8fZHv1Ki_fr-16" value="제품" style="ellipse;whiteSpace=wrap;html=1;align=center;" vertex="1" parent="1">
          <mxGeometry x="10" y="510" width="100" height="40" as="geometry" />
        </mxCell>
        <mxCell id="BC6CCDMrd8fZHv1Ki_fr-17" value="" style="endArrow=none;html=1;rounded=0;exitX=1;exitY=0.5;exitDx=0;exitDy=0;entryX=0;entryY=1;entryDx=0;entryDy=0;" edge="1" parent="1" target="BC6CCDMrd8fZHv1Ki_fr-1">
          <mxGeometry width="50" height="50" relative="1" as="geometry">
            <mxPoint x="110" y="529.9999999999998" as="sourcePoint" />
            <mxPoint x="360" y="630" as="targetPoint" />
          </mxGeometry>
        </mxCell>
        <mxCell id="BC6CCDMrd8fZHv1Ki_fr-18" value="고객" style="swimlane;fontStyle=0;childLayout=stackLayout;horizontal=1;startSize=30;horizontalStack=0;resizeParent=1;resizeParentMax=0;resizeLast=0;collapsible=1;marginBottom=0;whiteSpace=wrap;html=1;" vertex="1" parent="1">
          <mxGeometry x="-190" y="200" width="210" height="180" as="geometry" />
        </mxCell>
        <mxCell id="BC6CCDMrd8fZHv1Ki_fr-19" value="-고객이름&lt;br&gt;-고객번호" style="text;strokeColor=none;fillColor=none;align=left;verticalAlign=middle;spacingLeft=4;spacingRight=4;overflow=hidden;points=[[0,0.5],[1,0.5]];portConstraint=eastwest;rotatable=0;whiteSpace=wrap;html=1;" vertex="1" parent="BC6CCDMrd8fZHv1Ki_fr-18">
          <mxGeometry y="30" width="210" height="50" as="geometry" />
        </mxCell>
        <mxCell id="BC6CCDMrd8fZHv1Ki_fr-20" value="-전화번호&lt;br&gt;-이메일" style="text;strokeColor=none;fillColor=none;align=left;verticalAlign=middle;spacingLeft=4;spacingRight=4;overflow=hidden;points=[[0,0.5],[1,0.5]];portConstraint=eastwest;rotatable=0;whiteSpace=wrap;html=1;" vertex="1" parent="BC6CCDMrd8fZHv1Ki_fr-18">
          <mxGeometry y="80" width="210" height="50" as="geometry" />
        </mxCell>
        <mxCell id="BC6CCDMrd8fZHv1Ki_fr-21" value="-지역코드(FK)&lt;br&gt;-제품" style="text;strokeColor=none;fillColor=none;align=left;verticalAlign=middle;spacingLeft=4;spacingRight=4;overflow=hidden;points=[[0,0.5],[1,0.5]];portConstraint=eastwest;rotatable=0;whiteSpace=wrap;html=1;" vertex="1" parent="BC6CCDMrd8fZHv1Ki_fr-18">
          <mxGeometry y="130" width="210" height="50" as="geometry" />
        </mxCell>
        <mxCell id="gLx6VSw6pHFTRbmqs-br-1" value="지역" style="rounded=0;whiteSpace=wrap;html=1;" vertex="1" parent="1">
          <mxGeometry x="200" y="770" width="140" height="75" as="geometry" />
        </mxCell>
        <mxCell id="gLx6VSw6pHFTRbmqs-br-2" style="edgeStyle=orthogonalEdgeStyle;rounded=0;orthogonalLoop=1;jettySize=auto;html=1;exitX=0;exitY=0.25;exitDx=0;exitDy=0;entryX=0;entryY=0.5;entryDx=0;entryDy=0;" edge="1" parent="1" source="gLx6VSw6pHFTRbmqs-br-1" target="gLx6VSw6pHFTRbmqs-br-1">
          <mxGeometry relative="1" as="geometry" />
        </mxCell>
        <mxCell id="gLx6VSw6pHFTRbmqs-br-3" value="지역코드" style="ellipse;whiteSpace=wrap;html=1;" vertex="1" parent="1">
          <mxGeometry x="50" y="930" width="120" height="60" as="geometry" />
        </mxCell>
        <mxCell id="gLx6VSw6pHFTRbmqs-br-4" value="지역명" style="ellipse;whiteSpace=wrap;html=1;" vertex="1" parent="1">
          <mxGeometry x="350" y="920" width="120" height="60" as="geometry" />
        </mxCell>
        <mxCell id="gLx6VSw6pHFTRbmqs-br-5" value="" style="endArrow=none;html=1;rounded=0;entryX=0.791;entryY=0.056;entryDx=0;entryDy=0;entryPerimeter=0;" edge="1" parent="1" target="gLx6VSw6pHFTRbmqs-br-3">
          <mxGeometry width="50" height="50" relative="1" as="geometry">
            <mxPoint x="210" y="848" as="sourcePoint" />
            <mxPoint x="60.0004390460271" y="1012.1687144286644" as="targetPoint" />
          </mxGeometry>
        </mxCell>
        <mxCell id="gLx6VSw6pHFTRbmqs-br-6" value="" style="endArrow=none;html=1;rounded=0;exitX=1;exitY=1;exitDx=0;exitDy=0;" edge="1" parent="1" source="gLx6VSw6pHFTRbmqs-br-1" target="gLx6VSw6pHFTRbmqs-br-4">
          <mxGeometry width="50" height="50" relative="1" as="geometry">
            <mxPoint x="-310" y="675" as="sourcePoint" />
            <mxPoint x="-260" y="625" as="targetPoint" />
          </mxGeometry>
        </mxCell>
        <mxCell id="gLx6VSw6pHFTRbmqs-br-12" value="지역" style="swimlane;fontStyle=0;childLayout=stackLayout;horizontal=1;startSize=30;horizontalStack=0;resizeParent=1;resizeParentMax=0;resizeLast=0;collapsible=1;marginBottom=0;whiteSpace=wrap;html=1;" vertex="1" parent="1">
          <mxGeometry x="-210" y="850" width="210" height="130" as="geometry" />
        </mxCell>
        <mxCell id="gLx6VSw6pHFTRbmqs-br-14" value="-지역코드(FK)&lt;span style=&quot;white-space: pre;&quot;&gt;&#x9;&lt;/span&gt;&lt;span style=&quot;white-space: pre;&quot;&gt;&#x9;&lt;/span&gt;" style="text;strokeColor=none;fillColor=none;align=left;verticalAlign=middle;spacingLeft=4;spacingRight=4;overflow=hidden;points=[[0,0.5],[1,0.5]];portConstraint=eastwest;rotatable=0;whiteSpace=wrap;html=1;" vertex="1" parent="gLx6VSw6pHFTRbmqs-br-12">
          <mxGeometry y="30" width="210" height="50" as="geometry" />
        </mxCell>
        <mxCell id="gLx6VSw6pHFTRbmqs-br-15" value="-지역명" style="text;strokeColor=none;fillColor=none;align=left;verticalAlign=middle;spacingLeft=4;spacingRight=4;overflow=hidden;points=[[0,0.5],[1,0.5]];portConstraint=eastwest;rotatable=0;whiteSpace=wrap;html=1;" vertex="1" parent="gLx6VSw6pHFTRbmqs-br-12">
          <mxGeometry y="80" width="210" height="50" as="geometry" />
        </mxCell>
        <mxCell id="JWnu2VAUM1Pxo3Z29Uek-6" value="제품" style="rounded=0;whiteSpace=wrap;html=1;gradientColor=none;fillColor=default;" vertex="1" parent="1">
          <mxGeometry x="674.24" y="480" width="120" height="55" as="geometry" />
        </mxCell>
        <mxCell id="JWnu2VAUM1Pxo3Z29Uek-7" value="제품명" style="ellipse;whiteSpace=wrap;html=1;" vertex="1" parent="1">
          <mxGeometry x="770" y="610" width="120" height="60" as="geometry" />
        </mxCell>
        <mxCell id="JWnu2VAUM1Pxo3Z29Uek-8" value="제품코드" style="ellipse;whiteSpace=wrap;html=1;" vertex="1" parent="1">
          <mxGeometry x="784.24" y="340" width="120" height="60" as="geometry" />
        </mxCell>
        <mxCell id="JWnu2VAUM1Pxo3Z29Uek-9" value="제품구분" style="ellipse;whiteSpace=wrap;html=1;" vertex="1" parent="1">
          <mxGeometry x="500" y="360" width="140" height="60" as="geometry" />
        </mxCell>
        <mxCell id="JWnu2VAUM1Pxo3Z29Uek-10" value="가격" style="ellipse;whiteSpace=wrap;html=1;" vertex="1" parent="1">
          <mxGeometry x="915" y="500" width="120" height="60" as="geometry" />
        </mxCell>
        <mxCell id="JWnu2VAUM1Pxo3Z29Uek-11" value="제품색상" style="ellipse;whiteSpace=wrap;html=1;" vertex="1" parent="1">
          <mxGeometry x="570" y="590" width="120" height="60" as="geometry" />
        </mxCell>
        <mxCell id="JWnu2VAUM1Pxo3Z29Uek-12" value="" style="endArrow=none;html=1;rounded=0;exitX=0.648;exitY=0.987;exitDx=0;exitDy=0;entryX=0;entryY=0.5;entryDx=0;entryDy=0;exitPerimeter=0;" edge="1" parent="1" source="JWnu2VAUM1Pxo3Z29Uek-9" target="JWnu2VAUM1Pxo3Z29Uek-6">
          <mxGeometry relative="1" as="geometry">
            <mxPoint x="644.0179068496309" y="441.0923334108604" as="sourcePoint" />
            <mxPoint x="964.24" y="380" as="targetPoint" />
          </mxGeometry>
        </mxCell>
        <mxCell id="JWnu2VAUM1Pxo3Z29Uek-13" value="" style="endArrow=none;html=1;rounded=0;exitX=0;exitY=1;exitDx=0;exitDy=0;entryX=0.644;entryY=0.056;entryDx=0;entryDy=0;entryPerimeter=0;" edge="1" parent="1" source="JWnu2VAUM1Pxo3Z29Uek-6" target="JWnu2VAUM1Pxo3Z29Uek-11">
          <mxGeometry relative="1" as="geometry">
            <mxPoint x="704.24" y="381" as="sourcePoint" />
            <mxPoint x="600" y="512.1599999999999" as="targetPoint" />
          </mxGeometry>
        </mxCell>
        <mxCell id="JWnu2VAUM1Pxo3Z29Uek-14" value="" style="endArrow=none;html=1;rounded=0;exitX=0.5;exitY=1;exitDx=0;exitDy=0;entryX=0.5;entryY=0;entryDx=0;entryDy=0;" edge="1" parent="1" source="JWnu2VAUM1Pxo3Z29Uek-6" target="JWnu2VAUM1Pxo3Z29Uek-7">
          <mxGeometry relative="1" as="geometry">
            <mxPoint x="714.24" y="391" as="sourcePoint" />
            <mxPoint x="848.24" y="447" as="targetPoint" />
          </mxGeometry>
        </mxCell>
        <mxCell id="JWnu2VAUM1Pxo3Z29Uek-15" value="" style="endArrow=none;html=1;rounded=0;exitX=1;exitY=0.75;exitDx=0;exitDy=0;entryX=0;entryY=0.5;entryDx=0;entryDy=0;" edge="1" parent="1" source="JWnu2VAUM1Pxo3Z29Uek-6" target="JWnu2VAUM1Pxo3Z29Uek-10">
          <mxGeometry relative="1" as="geometry">
            <mxPoint x="724.24" y="401" as="sourcePoint" />
            <mxPoint x="858.24" y="457" as="targetPoint" />
          </mxGeometry>
        </mxCell>
        <mxCell id="JWnu2VAUM1Pxo3Z29Uek-16" value="" style="endArrow=none;html=1;rounded=0;exitX=0.5;exitY=0;exitDx=0;exitDy=0;entryX=0.224;entryY=0.997;entryDx=0;entryDy=0;entryPerimeter=0;" edge="1" parent="1" source="JWnu2VAUM1Pxo3Z29Uek-6" target="JWnu2VAUM1Pxo3Z29Uek-8">
          <mxGeometry relative="1" as="geometry">
            <mxPoint x="734.24" y="411" as="sourcePoint" />
            <mxPoint x="868.24" y="467" as="targetPoint" />
          </mxGeometry>
        </mxCell>
        <mxCell id="JWnu2VAUM1Pxo3Z29Uek-17" value="제품" style="swimlane;fontStyle=0;childLayout=stackLayout;horizontal=1;startSize=26;horizontalStack=0;resizeParent=1;resizeParentMax=0;resizeLast=0;collapsible=1;marginBottom=0;align=center;fontSize=14;" vertex="1" parent="1">
          <mxGeometry x="890" y="170" width="170" height="120" as="geometry" />
        </mxCell>
        <mxCell id="JWnu2VAUM1Pxo3Z29Uek-18" value="-제품코드(PK)&lt;br&gt;-제품명&lt;span style=&quot;white-space: pre;&quot;&gt;&#x9;&lt;/span&gt;&lt;br&gt;" style="text;strokeColor=none;fillColor=none;spacingLeft=4;spacingRight=4;overflow=hidden;rotatable=0;points=[[0,0.5],[1,0.5]];portConstraint=eastwest;fontSize=12;whiteSpace=wrap;html=1;" vertex="1" parent="JWnu2VAUM1Pxo3Z29Uek-17">
          <mxGeometry y="26" width="170" height="44" as="geometry" />
        </mxCell>
        <mxCell id="JWnu2VAUM1Pxo3Z29Uek-19" value="-제품구분&lt;br&gt;-제품가격" style="text;strokeColor=none;fillColor=none;spacingLeft=4;spacingRight=4;overflow=hidden;rotatable=0;points=[[0,0.5],[1,0.5]];portConstraint=eastwest;fontSize=12;whiteSpace=wrap;html=1;" vertex="1" parent="JWnu2VAUM1Pxo3Z29Uek-17">
          <mxGeometry y="70" width="170" height="50" as="geometry" />
        </mxCell>
        <mxCell id="JWnu2VAUM1Pxo3Z29Uek-25" value="관리" style="rhombus;whiteSpace=wrap;html=1;" vertex="1" parent="1">
          <mxGeometry x="190" y="620" width="120" height="80" as="geometry" />
        </mxCell>
        <mxCell id="JWnu2VAUM1Pxo3Z29Uek-26" value="구매" style="rhombus;whiteSpace=wrap;html=1;" vertex="1" parent="1">
          <mxGeometry x="490" y="470" width="100" height="80" as="geometry" />
        </mxCell>
        <mxCell id="JWnu2VAUM1Pxo3Z29Uek-27" value="" style="endArrow=none;html=1;rounded=0;exitX=1;exitY=0.5;exitDx=0;exitDy=0;entryX=0.09;entryY=0.439;entryDx=0;entryDy=0;entryPerimeter=0;" edge="1" parent="1" source="BC6CCDMrd8fZHv1Ki_fr-1" target="JWnu2VAUM1Pxo3Z29Uek-26">
          <mxGeometry relative="1" as="geometry">
            <mxPoint x="190" y="620" as="sourcePoint" />
            <mxPoint x="490" y="500" as="targetPoint" />
          </mxGeometry>
        </mxCell>
        <mxCell id="JWnu2VAUM1Pxo3Z29Uek-29" value="" style="endArrow=none;html=1;rounded=0;entryX=0;entryY=0.5;entryDx=0;entryDy=0;exitX=1;exitY=0.5;exitDx=0;exitDy=0;" edge="1" parent="1" source="JWnu2VAUM1Pxo3Z29Uek-26" target="JWnu2VAUM1Pxo3Z29Uek-6">
          <mxGeometry relative="1" as="geometry">
            <mxPoint x="190" y="620" as="sourcePoint" />
            <mxPoint x="350" y="620" as="targetPoint" />
          </mxGeometry>
        </mxCell>
        <mxCell id="JWnu2VAUM1Pxo3Z29Uek-30" value="" style="endArrow=none;html=1;rounded=0;exitX=0.387;exitY=1.084;exitDx=0;exitDy=0;exitPerimeter=0;entryX=0.5;entryY=0;entryDx=0;entryDy=0;" edge="1" parent="1" source="BC6CCDMrd8fZHv1Ki_fr-1" target="JWnu2VAUM1Pxo3Z29Uek-25">
          <mxGeometry relative="1" as="geometry">
            <mxPoint x="190" y="620" as="sourcePoint" />
            <mxPoint x="350" y="620" as="targetPoint" />
          </mxGeometry>
        </mxCell>
        <mxCell id="JWnu2VAUM1Pxo3Z29Uek-31" value="" style="endArrow=none;html=1;rounded=0;entryX=0.615;entryY=0.013;entryDx=0;entryDy=0;entryPerimeter=0;exitX=0.5;exitY=1;exitDx=0;exitDy=0;" edge="1" parent="1" source="JWnu2VAUM1Pxo3Z29Uek-25" target="gLx6VSw6pHFTRbmqs-br-1">
          <mxGeometry relative="1" as="geometry">
            <mxPoint x="190" y="620" as="sourcePoint" />
            <mxPoint x="350" y="620" as="targetPoint" />
          </mxGeometry>
        </mxCell>
        <mxCell id="JWnu2VAUM1Pxo3Z29Uek-32" value="구매" style="swimlane;fontStyle=0;childLayout=stackLayout;horizontal=1;startSize=26;horizontalStack=0;resizeParent=1;resizeParentMax=0;resizeLast=0;collapsible=1;marginBottom=0;align=center;fontSize=14;" vertex="1" parent="1">
          <mxGeometry x="450" y="170" width="160" height="150" as="geometry" />
        </mxCell>
        <mxCell id="JWnu2VAUM1Pxo3Z29Uek-33" value="-구매번호(PK)" style="text;strokeColor=none;fillColor=none;spacingLeft=4;spacingRight=4;overflow=hidden;rotatable=0;points=[[0,0.5],[1,0.5]];portConstraint=eastwest;fontSize=12;whiteSpace=wrap;html=1;" vertex="1" parent="JWnu2VAUM1Pxo3Z29Uek-32">
          <mxGeometry y="26" width="160" height="30" as="geometry" />
        </mxCell>
        <mxCell id="JWnu2VAUM1Pxo3Z29Uek-34" value="-구매코드(FK)" style="text;strokeColor=none;fillColor=none;spacingLeft=4;spacingRight=4;overflow=hidden;rotatable=0;points=[[0,0.5],[1,0.5]];portConstraint=eastwest;fontSize=12;whiteSpace=wrap;html=1;" vertex="1" parent="JWnu2VAUM1Pxo3Z29Uek-32">
          <mxGeometry y="56" width="160" height="30" as="geometry" />
        </mxCell>
        <mxCell id="JWnu2VAUM1Pxo3Z29Uek-35" value="-제품코드(FK)&lt;br&gt;-구매수량&lt;br&gt;-구매일자" style="text;strokeColor=none;fillColor=none;spacingLeft=4;spacingRight=4;overflow=hidden;rotatable=0;points=[[0,0.5],[1,0.5]];portConstraint=eastwest;fontSize=12;whiteSpace=wrap;html=1;" vertex="1" parent="JWnu2VAUM1Pxo3Z29Uek-32">
          <mxGeometry y="86" width="160" height="64" as="geometry" />
        </mxCell>
      </root>
    </mxGraphModel>
  </diagram>
</mxfile>
